<svg width="1124" height="832" viewBox="0 0 1124 832" fill="none" xmlns="http://www.w3.org/2000/svg">
<path d="M0 49.9999C0 22.3857 22.3858 0 50 0H767.695C794.838 0 817.024 21.6555 817.68 48.7906L818.326 75.4557C818.98 102.491 841.01 124.106 868.053 124.246L1074.26 125.31C1101.77 125.452 1124 147.795 1124 175.309V782C1124 809.614 1101.61 832 1074 832H327C299.386 832 277 809.614 277 782V767.368C277 739.754 254.614 717.368 227 717.368H50C22.3858 717.368 0 694.982 0 667.368V49.9999Z" fill="#323232"/>
</svg>
